<svg width="16" height="16" viewBox="0 0 16 16" fill="none" xmlns="http://www.w3.org/2000/svg">
  <path d="M8 0C3.582 0 0 3.582 0 8c0 3.536 2.29 6.533 5.47 7.59.4.074.547-.174.547-.385 0-.19-.007-.822-.012-1.493-2.006.378-2.958-.49-3.13-.94-.105-.266-.56-1.27-.954-1.53-.326-.19-.793-.663-.013-.678.734-.012 1.26.674 1.432.948.84 1.39 2.184.997 2.714.76.084-.61.324-1.032.588-1.27-2.06-.234-4.218-1.03-4.218-4.57 0-1.008.364-1.83.947-2.476-.095-.234-.412-1.174.09-2.448 0 0 .773-.248 2.53.95.734-.204 1.52-.306 2.294-.31.772.004 1.558.106 2.294.31 1.756-1.198 2.53-.95 2.53-.95.502 1.274.184 2.214.09 2.448.584.646.946 1.468.946 2.476 0 3.548-2.16 4.332-4.22 4.563.33.286.633.848.633 1.71 0 1.234-.012 2.226-.012 2.525 0 .213.145.462.55.384C13.71 14.532 16 11.535 16 8c0-4.418-3.582-8-8-8z" fill="white"/>
</svg>
